<mxfile host="Electron" modified="2023-11-16T22:15:33.304Z" agent="Mozilla/5.0 (Windows NT 10.0; Win64; x64) AppleWebKit/537.36 (KHTML, like Gecko) draw.io/21.2.1 Chrome/112.0.5615.87 Electron/24.1.2 Safari/537.36" etag="vki_PqmoC-0tfQylFdCu" version="21.2.1" type="device">
  <diagram name="Page-1" id="h30itLXw2uUbptoTK8M7">
    <mxGraphModel dx="330" dy="193" grid="1" gridSize="10" guides="1" tooltips="1" connect="1" arrows="1" fold="1" page="1" pageScale="1" pageWidth="827" pageHeight="1169" math="0" shadow="0">
      <root>
        <mxCell id="0" />
        <mxCell id="1" parent="0" />
        <mxCell id="9llehGLkONNfYEEEd7QB-7" style="edgeStyle=orthogonalEdgeStyle;rounded=0;orthogonalLoop=1;jettySize=auto;html=1;exitX=1;exitY=0.5;exitDx=0;exitDy=0;" edge="1" parent="1" source="9llehGLkONNfYEEEd7QB-1">
          <mxGeometry relative="1" as="geometry">
            <mxPoint x="400" y="339.80952380952374" as="targetPoint" />
          </mxGeometry>
        </mxCell>
        <mxCell id="9llehGLkONNfYEEEd7QB-1" value="" style="rounded=0;whiteSpace=wrap;html=1;" vertex="1" parent="1">
          <mxGeometry x="280" y="320" width="80" height="40" as="geometry" />
        </mxCell>
        <mxCell id="9llehGLkONNfYEEEd7QB-6" style="edgeStyle=orthogonalEdgeStyle;rounded=0;orthogonalLoop=1;jettySize=auto;html=1;exitX=1;exitY=0.5;exitDx=0;exitDy=0;entryX=0;entryY=0.5;entryDx=0;entryDy=0;" edge="1" parent="1" source="9llehGLkONNfYEEEd7QB-2" target="9llehGLkONNfYEEEd7QB-1">
          <mxGeometry relative="1" as="geometry" />
        </mxCell>
        <mxCell id="9llehGLkONNfYEEEd7QB-2" value="" style="rounded=0;whiteSpace=wrap;html=1;" vertex="1" parent="1">
          <mxGeometry x="185" y="320" width="55" height="40" as="geometry" />
        </mxCell>
        <mxCell id="9llehGLkONNfYEEEd7QB-3" value="G&lt;span style=&quot;font-size: 10px;&quot;&gt;&lt;sub&gt;c&lt;/sub&gt;&lt;/span&gt;" style="text;html=1;strokeColor=none;fillColor=none;align=center;verticalAlign=middle;whiteSpace=wrap;rounded=0;fontColor=#FF3333;" vertex="1" parent="1">
          <mxGeometry x="190" y="290" width="40" height="30" as="geometry" />
        </mxCell>
        <mxCell id="9llehGLkONNfYEEEd7QB-4" value="G&lt;span style=&quot;font-size: 10px;&quot;&gt;&lt;sub&gt;p&lt;/sub&gt;&lt;/span&gt;" style="text;html=1;strokeColor=none;fillColor=none;align=center;verticalAlign=middle;whiteSpace=wrap;rounded=0;fontColor=#FF3333;" vertex="1" parent="1">
          <mxGeometry x="300" y="290" width="40" height="30" as="geometry" />
        </mxCell>
        <mxCell id="9llehGLkONNfYEEEd7QB-8" value="R" style="text;html=1;strokeColor=none;fillColor=none;align=center;verticalAlign=middle;whiteSpace=wrap;rounded=0;" vertex="1" parent="1">
          <mxGeometry x="65" y="325" width="60" height="30" as="geometry" />
        </mxCell>
        <mxCell id="9llehGLkONNfYEEEd7QB-10" value="C" style="text;html=1;strokeColor=none;fillColor=none;align=center;verticalAlign=middle;whiteSpace=wrap;rounded=0;" vertex="1" parent="1">
          <mxGeometry x="380" y="325" width="60" height="30" as="geometry" />
        </mxCell>
        <mxCell id="9llehGLkONNfYEEEd7QB-11" value="" style="endArrow=classic;html=1;rounded=0;entryX=0.5;entryY=1;entryDx=0;entryDy=0;" edge="1" parent="1" target="9llehGLkONNfYEEEd7QB-12">
          <mxGeometry width="50" height="50" relative="1" as="geometry">
            <mxPoint x="380" y="340" as="sourcePoint" />
            <mxPoint x="180" y="380" as="targetPoint" />
            <Array as="points">
              <mxPoint x="380" y="380" />
              <mxPoint x="145" y="380" />
            </Array>
          </mxGeometry>
        </mxCell>
        <mxCell id="9llehGLkONNfYEEEd7QB-12" value="" style="ellipse;whiteSpace=wrap;html=1;" vertex="1" parent="1">
          <mxGeometry x="135" y="330" width="20" height="20" as="geometry" />
        </mxCell>
        <mxCell id="9llehGLkONNfYEEEd7QB-14" value="X" style="text;html=1;strokeColor=none;fillColor=none;align=center;verticalAlign=middle;whiteSpace=wrap;rounded=0;fontSize=23;" vertex="1" parent="1">
          <mxGeometry x="135" y="325" width="20" height="30" as="geometry" />
        </mxCell>
        <mxCell id="9llehGLkONNfYEEEd7QB-16" value="" style="endArrow=classic;html=1;rounded=0;" edge="1" parent="1">
          <mxGeometry width="50" height="50" relative="1" as="geometry">
            <mxPoint x="105" y="339.76" as="sourcePoint" />
            <mxPoint x="135" y="339.76" as="targetPoint" />
          </mxGeometry>
        </mxCell>
        <mxCell id="9llehGLkONNfYEEEd7QB-17" value="" style="endArrow=classic;html=1;rounded=0;" edge="1" parent="1">
          <mxGeometry width="50" height="50" relative="1" as="geometry">
            <mxPoint x="155" y="339.76" as="sourcePoint" />
            <mxPoint x="185" y="339.76" as="targetPoint" />
          </mxGeometry>
        </mxCell>
        <mxCell id="9llehGLkONNfYEEEd7QB-18" value="-" style="text;html=1;strokeColor=none;fillColor=none;align=center;verticalAlign=middle;whiteSpace=wrap;rounded=0;" vertex="1" parent="1">
          <mxGeometry x="130" y="356" width="10" height="10" as="geometry" />
        </mxCell>
        <mxCell id="9llehGLkONNfYEEEd7QB-19" value="+" style="text;html=1;strokeColor=none;fillColor=none;align=center;verticalAlign=middle;whiteSpace=wrap;rounded=0;" vertex="1" parent="1">
          <mxGeometry x="125" y="325" width="10" height="10" as="geometry" />
        </mxCell>
        <mxCell id="9llehGLkONNfYEEEd7QB-21" value="8" style="text;html=1;strokeColor=none;fillColor=none;align=center;verticalAlign=middle;whiteSpace=wrap;rounded=0;" vertex="1" parent="1">
          <mxGeometry x="300" y="322" width="40" height="20" as="geometry" />
        </mxCell>
        <mxCell id="9llehGLkONNfYEEEd7QB-22" value="s&lt;sup&gt;2&lt;/sup&gt;+2s+1" style="text;html=1;strokeColor=none;fillColor=none;align=center;verticalAlign=middle;whiteSpace=wrap;rounded=0;" vertex="1" parent="1">
          <mxGeometry x="300" y="337" width="40" height="20" as="geometry" />
        </mxCell>
        <mxCell id="9llehGLkONNfYEEEd7QB-23" value="" style="endArrow=none;html=1;rounded=0;" edge="1" parent="1">
          <mxGeometry width="50" height="50" relative="1" as="geometry">
            <mxPoint x="340" y="339" as="sourcePoint" />
            <mxPoint x="300" y="339" as="targetPoint" />
          </mxGeometry>
        </mxCell>
        <mxCell id="9llehGLkONNfYEEEd7QB-24" style="edgeStyle=orthogonalEdgeStyle;rounded=0;orthogonalLoop=1;jettySize=auto;html=1;exitX=1;exitY=0.5;exitDx=0;exitDy=0;" edge="1" parent="1" source="9llehGLkONNfYEEEd7QB-25">
          <mxGeometry relative="1" as="geometry">
            <mxPoint x="400" y="539.8095238095237" as="targetPoint" />
          </mxGeometry>
        </mxCell>
        <mxCell id="9llehGLkONNfYEEEd7QB-25" value="" style="rounded=0;whiteSpace=wrap;html=1;" vertex="1" parent="1">
          <mxGeometry x="280" y="520" width="80" height="40" as="geometry" />
        </mxCell>
        <mxCell id="9llehGLkONNfYEEEd7QB-26" style="edgeStyle=orthogonalEdgeStyle;rounded=0;orthogonalLoop=1;jettySize=auto;html=1;exitX=1;exitY=0.5;exitDx=0;exitDy=0;entryX=0;entryY=0.5;entryDx=0;entryDy=0;" edge="1" parent="1" source="9llehGLkONNfYEEEd7QB-27" target="9llehGLkONNfYEEEd7QB-25">
          <mxGeometry relative="1" as="geometry" />
        </mxCell>
        <mxCell id="9llehGLkONNfYEEEd7QB-27" value="" style="rounded=0;whiteSpace=wrap;html=1;" vertex="1" parent="1">
          <mxGeometry x="200" y="520" width="40" height="40" as="geometry" />
        </mxCell>
        <mxCell id="9llehGLkONNfYEEEd7QB-28" value="G&lt;span style=&quot;font-size: 10px;&quot;&gt;&lt;sub&gt;c&lt;/sub&gt;&lt;/span&gt;" style="text;html=1;strokeColor=none;fillColor=none;align=center;verticalAlign=middle;whiteSpace=wrap;rounded=0;fontColor=#FF3333;" vertex="1" parent="1">
          <mxGeometry x="200" y="490" width="40" height="30" as="geometry" />
        </mxCell>
        <mxCell id="9llehGLkONNfYEEEd7QB-29" value="G&lt;span style=&quot;font-size: 10px;&quot;&gt;&lt;sub&gt;p&lt;/sub&gt;&lt;/span&gt;" style="text;html=1;strokeColor=none;fillColor=none;align=center;verticalAlign=middle;whiteSpace=wrap;rounded=0;fontColor=#FF3333;" vertex="1" parent="1">
          <mxGeometry x="300" y="490" width="40" height="30" as="geometry" />
        </mxCell>
        <mxCell id="9llehGLkONNfYEEEd7QB-30" value="R" style="text;html=1;strokeColor=none;fillColor=none;align=center;verticalAlign=middle;whiteSpace=wrap;rounded=0;" vertex="1" parent="1">
          <mxGeometry x="80" y="525" width="60" height="30" as="geometry" />
        </mxCell>
        <mxCell id="9llehGLkONNfYEEEd7QB-31" value="C" style="text;html=1;strokeColor=none;fillColor=none;align=center;verticalAlign=middle;whiteSpace=wrap;rounded=0;" vertex="1" parent="1">
          <mxGeometry x="380" y="525" width="60" height="30" as="geometry" />
        </mxCell>
        <mxCell id="9llehGLkONNfYEEEd7QB-32" value="" style="endArrow=classic;html=1;rounded=0;entryX=0.5;entryY=1;entryDx=0;entryDy=0;" edge="1" parent="1" target="9llehGLkONNfYEEEd7QB-33">
          <mxGeometry width="50" height="50" relative="1" as="geometry">
            <mxPoint x="380" y="540" as="sourcePoint" />
            <mxPoint x="180" y="580" as="targetPoint" />
            <Array as="points">
              <mxPoint x="380" y="580" />
              <mxPoint x="160" y="580" />
            </Array>
          </mxGeometry>
        </mxCell>
        <mxCell id="9llehGLkONNfYEEEd7QB-33" value="" style="ellipse;whiteSpace=wrap;html=1;" vertex="1" parent="1">
          <mxGeometry x="150" y="530" width="20" height="20" as="geometry" />
        </mxCell>
        <mxCell id="9llehGLkONNfYEEEd7QB-34" value="X" style="text;html=1;strokeColor=none;fillColor=none;align=center;verticalAlign=middle;whiteSpace=wrap;rounded=0;fontSize=23;" vertex="1" parent="1">
          <mxGeometry x="150" y="525" width="20" height="30" as="geometry" />
        </mxCell>
        <mxCell id="9llehGLkONNfYEEEd7QB-35" value="" style="endArrow=classic;html=1;rounded=0;" edge="1" parent="1">
          <mxGeometry width="50" height="50" relative="1" as="geometry">
            <mxPoint x="120" y="539.76" as="sourcePoint" />
            <mxPoint x="150" y="539.76" as="targetPoint" />
          </mxGeometry>
        </mxCell>
        <mxCell id="9llehGLkONNfYEEEd7QB-36" value="" style="endArrow=classic;html=1;rounded=0;" edge="1" parent="1">
          <mxGeometry width="50" height="50" relative="1" as="geometry">
            <mxPoint x="170" y="539.76" as="sourcePoint" />
            <mxPoint x="200" y="539.76" as="targetPoint" />
          </mxGeometry>
        </mxCell>
        <mxCell id="9llehGLkONNfYEEEd7QB-37" value="-" style="text;html=1;strokeColor=none;fillColor=none;align=center;verticalAlign=middle;whiteSpace=wrap;rounded=0;" vertex="1" parent="1">
          <mxGeometry x="145" y="556" width="10" height="10" as="geometry" />
        </mxCell>
        <mxCell id="9llehGLkONNfYEEEd7QB-38" value="+" style="text;html=1;strokeColor=none;fillColor=none;align=center;verticalAlign=middle;whiteSpace=wrap;rounded=0;" vertex="1" parent="1">
          <mxGeometry x="140" y="525" width="10" height="10" as="geometry" />
        </mxCell>
        <mxCell id="9llehGLkONNfYEEEd7QB-39" value="K&lt;sub&gt;p&lt;/sub&gt;" style="text;html=1;strokeColor=none;fillColor=none;align=center;verticalAlign=middle;whiteSpace=wrap;rounded=0;" vertex="1" parent="1">
          <mxGeometry x="200" y="525" width="40" height="30" as="geometry" />
        </mxCell>
        <mxCell id="9llehGLkONNfYEEEd7QB-40" value="1" style="text;html=1;strokeColor=none;fillColor=none;align=center;verticalAlign=middle;whiteSpace=wrap;rounded=0;" vertex="1" parent="1">
          <mxGeometry x="300" y="521" width="40" height="20" as="geometry" />
        </mxCell>
        <mxCell id="9llehGLkONNfYEEEd7QB-41" value="s&lt;sup&gt;2&lt;/sup&gt;+as+b" style="text;html=1;strokeColor=none;fillColor=none;align=center;verticalAlign=middle;whiteSpace=wrap;rounded=0;" vertex="1" parent="1">
          <mxGeometry x="300" y="536" width="40" height="20" as="geometry" />
        </mxCell>
        <mxCell id="9llehGLkONNfYEEEd7QB-42" value="" style="endArrow=none;html=1;rounded=0;" edge="1" parent="1">
          <mxGeometry width="50" height="50" relative="1" as="geometry">
            <mxPoint x="345" y="538" as="sourcePoint" />
            <mxPoint x="295" y="538" as="targetPoint" />
          </mxGeometry>
        </mxCell>
        <mxCell id="9llehGLkONNfYEEEd7QB-43" value="K&lt;sub&gt;d&lt;/sub&gt;s + K&lt;sub&gt;p&lt;/sub&gt;" style="text;html=1;strokeColor=none;fillColor=none;align=center;verticalAlign=middle;whiteSpace=wrap;rounded=0;" vertex="1" parent="1">
          <mxGeometry x="186" y="335" width="54" height="10" as="geometry" />
        </mxCell>
      </root>
    </mxGraphModel>
  </diagram>
</mxfile>
